<svg xmlns="http://www.w3.org/2000/svg" viewBox="0 0 32 32" width="512" height="512" shape-rendering="crispEdges">
<g><rect x="13" y="2" width="1" height="1" fill="#0f0f0f" fill-opacity="0.620"/><rect x="14" y="2" width="1" height="1" fill="#2d2d2d" fill-opacity="0.949"/><rect x="15" y="2" width="1" height="1" fill="#76622d" fill-opacity="0.973"/><rect x="16" y="2" width="1" height="1" fill="#76622d" fill-opacity="0.949"/><rect x="17" y="2" width="1" height="1" fill="#1c1c1c" fill-opacity="0.949"/><rect x="18" y="2" width="1" height="1" fill="#1c1c1c" fill-opacity="0.667"/><rect x="13" y="3" width="1" height="1" fill="#0f0f0f" fill-opacity="0.651"/><rect x="14" y="3" width="3" height="1" fill="#76622d"/><rect x="17" y="3" width="1" height="1" fill="#373e2f"/><rect x="18" y="3" width="1" height="1" fill="#0f0f0f" fill-opacity="0.698"/><rect x="13" y="4" width="1" height="1" fill="#0f0f0f" fill-opacity="0.651"/><rect x="14" y="4" width="1" height="1" fill="#3d595c" fill-opacity="0.820"/><rect x="15" y="4" width="1" height="1" fill="#222321" fill-opacity="0.561"/><rect x="16" y="4" width="1" height="1" fill="#76622d"/><rect x="17" y="4" width="1" height="1" fill="#517055"/><rect x="18" y="4" width="1" height="1" fill="#1c1c1c" fill-opacity="0.698"/><rect x="13" y="5" width="1" height="1" fill="#0f0f0f" fill-opacity="0.651"/><rect x="14" y="5" width="1" height="1" fill="#41413e"/><rect x="15" y="5" width="2" height="1" fill="#76622d"/><rect x="17" y="5" width="1" height="1" fill="#3d595c"/><rect x="18" y="5" width="1" height="1" fill="#1c1c1c" fill-opacity="0.698"/><rect x="12" y="6" width="1" height="1" fill="#2f3338" fill-opacity="0.078"/><rect x="13" y="6" width="1" height="1" fill="#41413e" fill-opacity="0.784"/><rect x="14" y="6" width="1" height="1" fill="#2d2d2d" fill-opacity="0.820"/><rect x="15" y="6" width="1" height="1" fill="#76622d" fill-opacity="0.749"/><rect x="16" y="6" width="1" height="1" fill="#76622d" fill-opacity="0.839"/><rect x="17" y="6" width="1" height="1" fill="#2d2d2d" fill-opacity="0.827"/><rect x="18" y="6" width="1" height="1" fill="#41413e" fill-opacity="0.812"/><rect x="19" y="6" width="1" height="1" fill="#4b4d49" fill-opacity="0.090"/><rect x="12" y="7" width="1" height="1" fill="#2d2d2d" fill-opacity="0.635"/><rect x="13" y="7" width="1" height="1" fill="#90a39c"/><rect x="14" y="7" width="1" height="1" fill="#bdc0c6" fill-opacity="0.796"/><rect x="15" y="7" width="1" height="1" fill="#acadb6" fill-opacity="0.800"/><rect x="16" y="7" width="1" height="1" fill="#90a39c" fill-opacity="0.831"/><rect x="17" y="7" width="1" height="1" fill="#bdc0c6" fill-opacity="0.812"/><rect x="18" y="7" width="1" height="1" fill="#738ea5"/><rect x="19" y="7" width="1" height="1" fill="#2f3338" fill-opacity="0.682"/><rect x="12" y="8" width="1" height="1" fill="#2d2d2d" fill-opacity="0.455"/><rect x="13" y="8" width="1" height="1" fill="#2d2d2d"/><rect x="14" y="8" width="1" height="1" fill="#697691"/><rect x="15" y="8" width="1" height="1" fill="#738ea5" fill-opacity="0.541"/><rect x="16" y="8" width="1" height="1" fill="#738ea5" fill-opacity="0.624"/><rect x="17" y="8" width="1" height="1" fill="#697691"/><rect x="18" y="8" width="1" height="1" fill="#2f3338"/><rect x="19" y="8" width="1" height="1" fill="#2d2d2d" fill-opacity="0.498"/><rect x="11" y="9" width="1" height="1" fill="#4b4d49" fill-opacity="0.259"/><rect x="12" y="9" width="1" height="1" fill="#373e2f" fill-opacity="0.894"/><rect x="13" y="9" width="1" height="1" fill="#0b1d12"/><rect x="14" y="9" width="1" height="1" fill="#acadb6"/><rect x="15" y="9" width="1" height="1" fill="#bdc0c6" fill-opacity="0.196"/><rect x="16" y="9" width="1" height="1" fill="#bdc0c6" fill-opacity="0.098"/><rect x="17" y="9" width="1" height="1" fill="#acadb6"/><rect x="18" y="9" width="1" height="1" fill="#1c1c1c"/><rect x="19" y="9" width="1" height="1" fill="#373e2f" fill-opacity="0.882"/><rect x="20" y="9" width="1" height="1" fill="#222321" fill-opacity="0.208"/><rect x="9" y="10" width="1" height="1" fill="#697691" fill-opacity="0.024"/><rect x="10" y="10" width="1" height="1" fill="#2f3338" fill-opacity="0.376"/><rect x="11" y="10" width="1" height="1" fill="#373e2f" fill-opacity="0.980"/><rect x="12" y="10" width="1" height="1" fill="#76622d"/><rect x="13" y="10" width="1" height="1" fill="#1c2c22"/><rect x="14" y="10" width="1" height="1" fill="#acadb6"/><rect x="15" y="10" width="1" height="1" fill="#bdc0c6" fill-opacity="0.518"/><rect x="16" y="10" width="1" height="1" fill="#bdc0c6" fill-opacity="0.510"/><rect x="17" y="10" width="1" height="1" fill="#acadb6"/><rect x="18" y="10" width="1" height="1" fill="#1d402a"/><rect x="19" y="10" width="1" height="1" fill="#76622d"/><rect x="20" y="10" width="1" height="1" fill="#373e2f" fill-opacity="0.969"/><rect x="21" y="10" width="1" height="1" fill="#1c1c1c" fill-opacity="0.588"/><rect x="22" y="10" width="1" height="1" fill="#517055" fill-opacity="0.031"/><rect x="8" y="11" width="1" height="1" fill="#41413e" fill-opacity="0.220"/><rect x="9" y="11" width="1" height="1" fill="#2d2d2d" fill-opacity="0.635"/><rect x="10" y="11" width="1" height="1" fill="#3d595c" fill-opacity="0.973"/><rect x="11" y="11" width="1" height="1" fill="#1c2c22"/><rect x="12" y="11" width="1" height="1" fill="#76622d"/><rect x="13" y="11" width="1" height="1" fill="#1c2c22"/><rect x="14" y="11" width="1" height="1" fill="#697691"/><rect x="15" y="11" width="2" height="1" fill="#acadb6"/><rect x="17" y="11" width="1" height="1" fill="#697691"/><rect x="18" y="11" width="1" height="1" fill="#1c2c22"/><rect x="19" y="11" width="1" height="1" fill="#517055"/><rect x="20" y="11" width="1" height="1" fill="#1d402a"/><rect x="21" y="11" width="1" height="1" fill="#3d595c" fill-opacity="0.973"/><rect x="22" y="11" width="1" height="1" fill="#2d2d2d" fill-opacity="0.671"/><rect x="23" y="11" width="1" height="1" fill="#4b4d49" fill-opacity="0.204"/><rect x="7" y="12" width="1" height="1" fill="#1c1c1c" fill-opacity="0.231"/><rect x="8" y="12" width="1" height="1" fill="#2f3338" fill-opacity="0.569"/><rect x="9" y="12" width="1" height="1" fill="#90a39c" fill-opacity="0.227"/><rect x="10" y="12" width="1" height="1" fill="#90a39c" fill-opacity="0.780"/><rect x="11" y="12" width="1" height="1" fill="#697691"/><rect x="12" y="12" width="2" height="1" fill="#0b1d12"/><rect x="14" y="12" width="1" height="1" fill="#2f3338"/><rect x="15" y="12" width="2" height="1" fill="#3d595c"/><rect x="17" y="12" width="1" height="1" fill="#41413e"/><rect x="18" y="12" width="2" height="1" fill="#0b1d12"/><rect x="20" y="12" width="1" height="1" fill="#697691"/><rect x="21" y="12" width="1" height="1" fill="#738ea5" fill-opacity="0.773"/><rect x="22" y="12" width="1" height="1" fill="#4b4d49" fill-opacity="0.227"/><rect x="23" y="12" width="1" height="1" fill="#222321" fill-opacity="0.580"/><rect x="24" y="12" width="1" height="1" fill="#1c1c1c" fill-opacity="0.251"/><rect x="7" y="13" width="1" height="1" fill="#4b4d49" fill-opacity="0.949"/><rect x="8" y="13" width="1" height="1" fill="#bdc0c6" fill-opacity="0.855"/><rect x="9" y="13" width="1" height="1" fill="#acadb6" fill-opacity="0.812"/><rect x="10" y="13" width="1" height="1" fill="#acadb6"/><rect x="11" y="13" width="1" height="1" fill="#697691"/><rect x="12" y="13" width="1" height="1" fill="#1d402a"/><rect x="13" y="13" width="1" height="1" fill="#000000" fill-opacity="0.808"/><rect x="14" y="13" width="1" height="1" fill="#0f0f0f" fill-opacity="0.671"/><rect x="15" y="13" width="1" height="1" fill="#3d595c" fill-opacity="0.973"/><rect x="16" y="13" width="1" height="1" fill="#3d595c" fill-opacity="0.984"/><rect x="17" y="13" width="1" height="1" fill="#0f0f0f" fill-opacity="0.678"/><rect x="18" y="13" width="1" height="1" fill="#0f0f0f" fill-opacity="0.671"/><rect x="19" y="13" width="1" height="1" fill="#222321" fill-opacity="0.961"/><rect x="20" y="13" width="1" height="1" fill="#697691"/><rect x="21" y="13" width="1" height="1" fill="#acadb6"/><rect x="22" y="13" width="1" height="1" fill="#acadb6" fill-opacity="0.698"/><rect x="23" y="13" width="1" height="1" fill="#acadb6" fill-opacity="0.757"/><rect x="24" y="13" width="1" height="1" fill="#4b4d49"/><rect x="7" y="14" width="1" height="1" fill="#41413e" fill-opacity="0.961"/><rect x="8" y="14" width="1" height="1" fill="#90a39c"/><rect x="9" y="14" width="1" height="1" fill="#bdc0c6"/><rect x="10" y="14" width="1" height="1" fill="#697691"/><rect x="11" y="14" width="1" height="1" fill="#2f3338" fill-opacity="0.925"/><rect x="12" y="14" width="1" height="1" fill="#222321" fill-opacity="0.376"/><rect x="13" y="14" width="1" height="1" fill="#41413e" fill-opacity="0.090"/><rect x="15" y="14" width="1" height="1" fill="#2d2d2d" fill-opacity="0.180"/><rect x="16" y="14" width="1" height="1" fill="#222321" fill-opacity="0.188"/><rect x="19" y="14" width="1" height="1" fill="#2d2d2d" fill-opacity="0.361"/><rect x="20" y="14" width="1" height="1" fill="#2f3338" fill-opacity="0.933"/><rect x="21" y="14" width="1" height="1" fill="#697691"/><rect x="22" y="14" width="1" height="1" fill="#bdc0c6" fill-opacity="0.953"/><rect x="23" y="14" width="1" height="1" fill="#90a39c" fill-opacity="0.961"/><rect x="24" y="14" width="1" height="1" fill="#4b4d49"/><rect x="7" y="15" width="1" height="1" fill="#2f3338" fill-opacity="0.886"/><rect x="8" y="15" width="1" height="1" fill="#697691"/><rect x="9" y="15" width="1" height="1" fill="#acadb6"/><rect x="10" y="15" width="1" height="1" fill="#2f3338"/><rect x="11" y="15" width="1" height="1" fill="#2f3338" fill-opacity="0.420"/><rect x="20" y="15" width="1" height="1" fill="#41413e" fill-opacity="0.333"/><rect x="21" y="15" width="1" height="1" fill="#2f3338"/><rect x="22" y="15" width="1" height="1" fill="#acadb6"/><rect x="23" y="15" width="1" height="1" fill="#697691"/><rect x="24" y="15" width="1" height="1" fill="#2f3338" fill-opacity="0.898"/><rect x="7" y="16" width="1" height="1" fill="#222321" fill-opacity="0.271"/><rect x="8" y="16" width="1" height="1" fill="#517055" fill-opacity="0.945"/><rect x="9" y="16" width="2" height="1" fill="#697691"/><rect x="11" y="16" width="1" height="1" fill="#1c1c1c" fill-opacity="0.749"/><rect x="20" y="16" width="1" height="1" fill="#0f0f0f" fill-opacity="0.698"/><rect x="21" y="16" width="1" height="1" fill="#697691"/><rect x="22" y="16" width="1" height="1" fill="#738ea5"/><rect x="23" y="16" width="1" height="1" fill="#697691" fill-opacity="0.969"/><rect x="24" y="16" width="1" height="1" fill="#222321" fill-opacity="0.298"/><rect x="8" y="17" width="1" height="1" fill="#2f3338" fill-opacity="0.690"/><rect x="9" y="17" width="1" height="1" fill="#697691"/><rect x="10" y="17" width="1" height="1" fill="#738ea5"/><rect x="11" y="17" width="1" height="1" fill="#1d402a" fill-opacity="0.976"/><rect x="12" y="17" width="1" height="1" fill="#1c1c1c" fill-opacity="0.345"/><rect x="19" y="17" width="1" height="1" fill="#41413e" fill-opacity="0.188"/><rect x="20" y="17" width="1" height="1" fill="#1d402a" fill-opacity="0.973"/><rect x="21" y="17" width="1" height="1" fill="#738ea5"/><rect x="22" y="17" width="1" height="1" fill="#697691"/><rect x="23" y="17" width="1" height="1" fill="#41413e" fill-opacity="0.698"/><rect x="8" y="18" width="1" height="1" fill="#41413e" fill-opacity="0.094"/><rect x="9" y="18" width="1" height="1" fill="#41413e" fill-opacity="0.757"/><rect x="10" y="18" width="1" height="1" fill="#1d402a"/><rect x="11" y="18" width="1" height="1" fill="#76622d"/><rect x="12" y="18" width="1" height="1" fill="#2d2d2d" fill-opacity="0.784"/><rect x="19" y="18" width="1" height="1" fill="#373e2f" fill-opacity="0.647"/><rect x="20" y="18" width="1" height="1" fill="#76622d"/><rect x="21" y="18" width="1" height="1" fill="#1d402a"/><rect x="22" y="18" width="1" height="1" fill="#2f3338" fill-opacity="0.765"/><rect x="23" y="18" width="1" height="1" fill="#1c1c1c" fill-opacity="0.086"/><rect x="9" y="19" width="1" height="1" fill="#4b4d49" fill-opacity="0.051"/><rect x="10" y="19" width="1" height="1" fill="#1c1c1c" fill-opacity="0.729"/><rect x="11" y="19" width="1" height="1" fill="#373e2f"/><rect x="12" y="19" width="1" height="1" fill="#222321" fill-opacity="0.859"/><rect x="19" y="19" width="1" height="1" fill="#373e2f" fill-opacity="0.596"/><rect x="20" y="19" width="1" height="1" fill="#373e2f"/><rect x="21" y="19" width="1" height="1" fill="#1c2c22" fill-opacity="0.725"/><rect x="22" y="19" width="1" height="1" fill="#4b4d49" fill-opacity="0.067"/><rect x="14" y="20" width="1" height="1" fill="#101010" fill-opacity="0.431"/><rect x="15" y="20" width="2" height="1" fill="#6d5838" fill-opacity="0.925"/><rect x="17" y="20" width="1" height="1" fill="#101010" fill-opacity="0.431"/><rect x="11" y="21" width="1" height="1" fill="#364557" fill-opacity="0.114"/><rect x="12" y="21" width="1" height="1" fill="#2a2627" fill-opacity="0.400"/><rect x="13" y="21" width="1" height="1" fill="#6d5838" fill-opacity="0.941"/><rect x="14" y="21" width="1" height="1" fill="#d5a61e" fill-opacity="0.996"/><rect x="15" y="21" width="2" height="1" fill="#feb512"/><rect x="17" y="21" width="1" height="1" fill="#d5a61e"/><rect x="18" y="21" width="1" height="1" fill="#6d5838" fill-opacity="0.929"/><rect x="19" y="21" width="1" height="1" fill="#2a2627" fill-opacity="0.396"/><rect x="20" y="21" width="1" height="1" fill="#364557" fill-opacity="0.035"/><rect x="10" y="22" width="1" height="1" fill="#2a2627" fill-opacity="0.365"/><rect x="11" y="22" width="1" height="1" fill="#6d5838" fill-opacity="0.867"/><rect x="12" y="22" width="1" height="1" fill="#d5a61e"/><rect x="13" y="22" width="4" height="1" fill="#feb512"/><rect x="17" y="22" width="1" height="1" fill="#feba15"/><rect x="18" y="22" width="1" height="1" fill="#feb512"/><rect x="19" y="22" width="1" height="1" fill="#d5a61e"/><rect x="20" y="22" width="1" height="1" fill="#6d5838" fill-opacity="0.851"/><rect x="21" y="22" width="1" height="1" fill="#2a2627" fill-opacity="0.345"/><rect x="10" y="23" width="1" height="1" fill="#2a2627" fill-opacity="0.765"/><rect x="11" y="23" width="1" height="1" fill="#f45b2d" fill-opacity="0.624"/><rect x="12" y="23" width="1" height="1" fill="#fcc022" fill-opacity="0.588"/><rect x="13" y="23" width="1" height="1" fill="#feba15" fill-opacity="0.898"/><rect x="14" y="23" width="2" height="1" fill="#feba15"/><rect x="16" y="23" width="1" height="1" fill="#feb512"/><rect x="17" y="23" width="1" height="1" fill="#feba15"/><rect x="18" y="23" width="1" height="1" fill="#feba15" fill-opacity="0.890"/><rect x="19" y="23" width="1" height="1" fill="#d5a61e" fill-opacity="0.549"/><rect x="20" y="23" width="1" height="1" fill="#60ab69" fill-opacity="0.659"/><rect x="21" y="23" width="1" height="1" fill="#0f1e1c" fill-opacity="0.773"/><rect x="10" y="24" width="1" height="1" fill="#2a2627" fill-opacity="0.808"/><rect x="11" y="24" width="1" height="1" fill="#bd605b"/><rect x="12" y="24" width="1" height="1" fill="#f45b2d" fill-opacity="0.894"/><rect x="13" y="24" width="1" height="1" fill="#f45b2d" fill-opacity="0.675"/><rect x="14" y="24" width="1" height="1" fill="#fcc022" fill-opacity="0.455"/><rect x="15" y="24" width="1" height="1" fill="#fcc022" fill-opacity="0.867"/><rect x="16" y="24" width="1" height="1" fill="#fcc022" fill-opacity="0.871"/><rect x="17" y="24" width="1" height="1" fill="#d5a61e" fill-opacity="0.584"/><rect x="18" y="24" width="1" height="1" fill="#15aa43" fill-opacity="0.663"/><rect x="19" y="24" width="1" height="1" fill="#15aa43" fill-opacity="0.949"/><rect x="20" y="24" width="1" height="1" fill="#15aa43"/><rect x="21" y="24" width="1" height="1" fill="#0f1e1c" fill-opacity="0.808"/><rect x="10" y="25" width="1" height="1" fill="#0c3e5c" fill-opacity="0.808"/><rect x="11" y="25" width="1" height="1" fill="#bd605b"/><rect x="12" y="25" width="2" height="1" fill="#f45b2d"/><rect x="14" y="25" width="1" height="1" fill="#bd605b" fill-opacity="0.969"/><rect x="15" y="25" width="1" height="1" fill="#bd605b" fill-opacity="0.573"/><rect x="16" y="25" width="1" height="1" fill="#23a263" fill-opacity="0.557"/><rect x="17" y="25" width="1" height="1" fill="#15aa43" fill-opacity="0.984"/><rect x="18" y="25" width="2" height="1" fill="#15aa43"/><rect x="20" y="25" width="1" height="1" fill="#078c4c"/><rect x="21" y="25" width="1" height="1" fill="#0f1e1c" fill-opacity="0.808"/><rect x="10" y="26" width="1" height="1" fill="#0c3e5c" fill-opacity="0.808"/><rect x="11" y="26" width="1" height="1" fill="#0f80f9"/><rect x="12" y="26" width="1" height="1" fill="#bd605b"/><rect x="13" y="26" width="1" height="1" fill="#1380bf"/><rect x="14" y="26" width="1" height="1" fill="#0f80f9"/><rect x="15" y="26" width="1" height="1" fill="#60ab69" fill-opacity="0.773"/><rect x="16" y="26" width="1" height="1" fill="#15aa43" fill-opacity="0.761"/><rect x="17" y="26" width="2" height="1" fill="#15aa43"/><rect x="19" y="26" width="2" height="1" fill="#078c4c"/><rect x="21" y="26" width="1" height="1" fill="#0f1e1c" fill-opacity="0.808"/><rect x="10" y="27" width="1" height="1" fill="#0c3e5c" fill-opacity="0.808"/><rect x="11" y="27" width="4" height="1" fill="#0f80f9"/><rect x="15" y="27" width="1" height="1" fill="#0f80f9" fill-opacity="0.773"/><rect x="16" y="27" width="1" height="1" fill="#15aa43" fill-opacity="0.761"/><rect x="17" y="27" width="1" height="1" fill="#0e974c"/><rect x="18" y="27" width="1" height="1" fill="#078c4c"/><rect x="19" y="27" width="1" height="1" fill="#0e974c"/><rect x="20" y="27" width="1" height="1" fill="#078c4c"/><rect x="21" y="27" width="1" height="1" fill="#0f1e1c" fill-opacity="0.808"/><rect x="10" y="28" width="1" height="1" fill="#0c3e5c" fill-opacity="0.808"/><rect x="11" y="28" width="4" height="1" fill="#0f80f9"/><rect x="15" y="28" width="1" height="1" fill="#0f80f9" fill-opacity="0.773"/><rect x="16" y="28" width="1" height="1" fill="#15aa43" fill-opacity="0.761"/><rect x="17" y="28" width="3" height="1" fill="#078c4c"/><rect x="20" y="28" width="1" height="1" fill="#23a263"/><rect x="21" y="28" width="1" height="1" fill="#0f1e1c" fill-opacity="0.808"/><rect x="10" y="29" width="1" height="1" fill="#364557" fill-opacity="0.133"/><rect x="11" y="29" width="1" height="1" fill="#0f1e1c" fill-opacity="0.565"/><rect x="12" y="29" width="1" height="1" fill="#0c3e5c" fill-opacity="0.969"/><rect x="13" y="29" width="2" height="1" fill="#0f80f9"/><rect x="15" y="29" width="1" height="1" fill="#0f80f9" fill-opacity="0.773"/><rect x="16" y="29" width="1" height="1" fill="#0e974c" fill-opacity="0.761"/><rect x="17" y="29" width="2" height="1" fill="#078c4c"/><rect x="19" y="29" width="1" height="1" fill="#0c3e5c" fill-opacity="0.965"/><rect x="20" y="29" width="1" height="1" fill="#0f1e1c" fill-opacity="0.545"/><rect x="21" y="29" width="1" height="1" fill="#2a2627" fill-opacity="0.129"/><rect x="12" y="30" width="1" height="1" fill="#364557" fill-opacity="0.078"/><rect x="13" y="30" width="1" height="1" fill="#0f1e1c" fill-opacity="0.576"/><rect x="14" y="30" width="1" height="1" fill="#0c3e5c" fill-opacity="0.980"/><rect x="15" y="30" width="1" height="1" fill="#1380bf" fill-opacity="0.773"/><rect x="16" y="30" width="1" height="1" fill="#23a263" fill-opacity="0.761"/><rect x="17" y="30" width="1" height="1" fill="#0c3e5c"/><rect x="18" y="30" width="1" height="1" fill="#0f1e1c" fill-opacity="0.569"/><rect x="19" y="30" width="1" height="1" fill="#6d5838" fill-opacity="0.090"/></g>
</svg>